<?xml version="1.0" encoding="UTF-8"?>
<svg id="Layer_2" data-name="Layer 2" xmlns="http://www.w3.org/2000/svg" viewBox="0 0 475.62 114.87">
  <defs>
    <style>
      .cls-1 {
        fill: #008f8d;
      }
    </style>
  </defs>
  <g id="Layer_1-2" data-name="Layer 1">
    <g>
      <path class="cls-1" d="M118.66,73.79c-1.22,1.82-2.83,3.24-4.78,4.22l-.06.03c-2,.99-4.23,1.49-6.64,1.49-2.55,0-4.91-.65-7.03-1.94-2.13-1.29-3.84-3.06-5.08-5.25-1.25-2.19-1.88-4.63-1.88-7.26s.63-4.98,1.87-7.12c1.24-2.14,2.95-3.84,5.07-5.07,2.12-1.23,4.49-1.85,7.04-1.85,2.1,0,4.12.46,6,1.37,1.88.91,3.46,2.17,4.69,3.76l.6.78,4.85-4.11-.59-.72c-1.89-2.28-4.22-4.1-6.91-5.4-2.7-1.31-5.61-1.97-8.65-1.97-3.71,0-7.16.91-10.25,2.69-3.09,1.79-5.58,4.27-7.4,7.37-1.82,3.11-2.75,6.57-2.75,10.28s.92,7.24,2.74,10.4c1.82,3.16,4.31,5.69,7.41,7.55,3.11,1.86,6.55,2.8,10.23,2.8,3.38,0,6.55-.72,9.42-2.15,2.89-1.43,5.28-3.51,7.11-6.16l.51-.74-5-3.82-.56.83Z"/>
      <path class="cls-1" d="M164.86,47.39l-.08-.05h0c-3.09-1.76-6.48-2.65-10.09-2.65s-7.11.91-10.22,2.72c-3.1,1.8-5.6,4.29-7.42,7.39-1.82,3.11-2.75,6.57-2.75,10.28s.92,7.23,2.74,10.38c1.82,3.14,4.31,5.67,7.41,7.52,3.11,1.86,6.55,2.8,10.23,2.8s7.11-.93,10.21-2.78c3.09-1.84,5.57-4.36,7.39-7.5,1.82-3.14,2.74-6.65,2.74-10.43s-.92-7.22-2.75-10.33c-1.82-3.1-4.32-5.58-7.42-7.37ZM168.63,65.09c0,2.66-.63,5.12-1.88,7.31h0c-1.25,2.19-2.96,3.95-5.08,5.23-2.12,1.27-4.46,1.92-6.98,1.92s-4.92-.65-7.03-1.92c-2.13-1.28-3.84-3.04-5.11-5.23-1.26-2.19-1.9-4.64-1.9-7.3s.63-4.98,1.87-7.12c1.25-2.14,2.96-3.87,5.08-5.13,2.12-1.26,4.5-1.89,7.09-1.89s4.92.64,7.03,1.89c2.12,1.26,3.82,2.99,5.05,5.12,1.23,2.14,1.85,4.53,1.85,7.12Z"/>
      <path class="cls-1" d="M217.94,74.17l-21.69-28.1c-.34-.48-.76-.83-1.25-1.06-.46-.21-.97-.31-1.52-.31-.94,0-1.75.33-2.41.99-.66.66-.99,1.47-.99,2.41v37.17h6.35v-28.62l21.71,27.85c.32.41.71.74,1.15.97.46.24.98.37,1.54.37.94,0,1.75-.33,2.41-.99.66-.66.99-1.47.99-2.41v-37.02h-6.3v28.76Z"/>
      <path class="cls-1" d="M259.8,74.62l-12.29-28.64-.25-.57h-6.93l16.37,38.26c.28.65.7,1.17,1.27,1.54.57.38,1.19.57,1.86.57s1.29-.2,1.85-.58c.54-.38.95-.89,1.23-1.53l16.26-38.26h-6.98l-12.39,29.21Z"/>
      <path class="cls-1" d="M294.21,46.41c-.66.66-.99,1.47-.99,2.41v33.04c0,.94.33,1.75.99,2.41.66.66,1.49,1,2.46,1h27.47v-6.35h-24.58v-10.43h23.04v-6.3h-23.04v-10.43h24.58v-6.35h-27.47c-.98,0-1.8.33-2.46.99Z"/>
      <path class="cls-1" d="M368.32,69.76h0c2-1.1,3.61-2.63,4.79-4.54,1.18-1.92,1.78-4.09,1.78-6.45s-.59-4.62-1.77-6.65c-1.17-2.03-2.77-3.67-4.77-4.88-2.01-1.21-4.23-1.83-6.62-1.83h-15.5c-.98,0-1.8.33-2.46.99-.66.66-.99,1.47-.99,2.41v36.45h6.35v-13.85h9.73l9.51,13.71.1.15h7.43l-10.08-14.46c.86-.27,1.7-.62,2.49-1.05ZM367.62,62.02c-.58.99-1.39,1.79-2.42,2.37-1.03.58-2.2.88-3.46.88h-12.6v-13.51h12.6c1.22,0,2.36.32,3.38.94,1.03.63,1.86,1.5,2.46,2.58.6,1.08.91,2.26.91,3.49,0,1.16-.29,2.25-.87,3.25Z"/>
      <path class="cls-1" d="M475.62,51.76v-6.35h-27.47c-.98,0-1.8.33-2.46.99-.66.66-.99,1.47-.99,2.41v33.04c0,.94.33,1.75.99,2.41.66.66,1.49,1,2.46,1h27.47v-6.35h-24.58v-10.43h23.04v-6.3h-23.04v-10.43h24.58Z"/>
      <path class="cls-1" d="M412.63,70.43h9.12v4.11c-1.18,1.53-2.68,2.74-4.44,3.57-1.98.94-4.18,1.42-6.52,1.42-2.55,0-4.91-.65-7.03-1.94-2.13-1.3-3.85-3.07-5.11-5.26-1.26-2.19-1.9-4.63-1.9-7.25s.64-4.98,1.9-7.11c1.26-2.14,2.98-3.85,5.1-5.08,2.12-1.23,4.49-1.85,7.04-1.85,2.1,0,4.09.44,5.9,1.32,1.82.88,3.41,2.12,4.72,3.68l.64.76,4.63-4.26-.59-.69c-1.89-2.21-4.19-3.97-6.83-5.22-2.65-1.25-5.49-1.89-8.46-1.89-3.67,0-7.11.91-10.22,2.69-3.11,1.79-5.6,4.27-7.43,7.37-1.82,3.11-2.75,6.57-2.75,10.28s.92,7.24,2.74,10.4c1.82,3.16,4.31,5.69,7.41,7.55,3.11,1.86,6.55,2.8,10.23,2.8,3.49,0,6.76-.78,9.72-2.31,2.97-1.54,5.39-3.72,7.19-6.5.27-.42.4-.89.4-1.37v-5.22h.01v-6.29h-15.49v6.29Z"/>
      <path class="cls-1" d="M27.17,106.47c-6.32-2.86-12.24-7.47-14.82-14.14-.34-.88-.63-1.79-.85-2.71.02.02.05.04.07.07.1.1.21.19.31.29.19.56.4,1.11.64,1.65,1.89,4.32,5.55,7.72,9.57,10.09,9.52,5.61,21.23,4.87,31.66,1.35l-5.92-4.24c-7.89,3.03-16.71,4.13-24.57.62-.51-.22-1.02-.47-1.52-.73-2.45-1.5-4.76-3.52-6.59-5.79-.17-.21-.33-.42-.49-.63-.32-.43-.63-.88-.92-1.33.76.84,1.57,1.58,2.42,2.24.35.27.7.52,1.06.76,7.46,4.97,17.73,4.13,26.38,1.84l-5-3.58c-3.79,1.32-7.75,2.18-11.72,2.31-5.22.19-10.69-1.73-14.25-5.62-.55-1.2-.97-2.46-1.21-3.77-1.38-7.78,3.78-14.72,9.11-19.89,8.63-8.41,19.65-14.12,31.35-16.88l1.43-7.18c-13.49,3.76-26.13,11.06-35.32,21.65-5.09,5.75-9.76,13.43-8.31,21.35-3.29-6.93-2.55-14.38,2.43-22.07,1.49-2.31,3.21-4.51,5.1-6.51,10.49-11.36,23.55-18.39,38.11-24.46l2.15-10.85c-5.94,2.71-11.69,5.85-17.17,9.4-10.13,6.61-19.25,14.76-26.7,24.28-1.56,2.07-3.02,4.24-4.25,6.52-4.45,8.15-5,15.96-1.62,22.94-2.72-3.95-4.65-8.31-4.89-13.5-.52-11.01,6.39-20.49,13.74-28.05,12.01-12.5,26.64-22.37,42.61-30.3l2.3-11.6C43.05,9.77,26.23,22.53,12.8,38.53c-4.95,5.83-9.43,12.52-11.57,19.98-3.46,11.96.64,22.06,9.28,30.2.11,1.35.34,2.7.69,4.01,3.04,11.06,14.26,18.74,25.06,21.18,9.49,2.08,19.52.66,28.81-2.71l-7.19-5.15c-9.87,3.86-20.88,4.99-30.7.45Z"/>
    </g>
  </g>
</svg>