<?xml version="1.0" encoding="UTF-8" standalone="no"?>
<!-- Created with Inkscape (http://www.inkscape.org/) -->

<svg
   width="804.82739"
   height="1342.1326"
   viewBox="0 0 212.94392 355.10591"
   version="1.1"
   id="svg1"
   inkscape:version="1.3 (0e150ed6c4, 2023-07-21)"
   sodipodi:docname="ev.svg"
   xml:space="preserve"
   inkscape:export-filename="fb-poster-closed.png"
   inkscape:export-xdpi="96"
   inkscape:export-ydpi="96"
   xmlns:inkscape="http://www.inkscape.org/namespaces/inkscape"
   xmlns:sodipodi="http://sodipodi.sourceforge.net/DTD/sodipodi-0.dtd"
   xmlns:xlink="http://www.w3.org/1999/xlink"
   xmlns="http://www.w3.org/2000/svg"
   xmlns:svg="http://www.w3.org/2000/svg"><sodipodi:namedview
     id="namedview1"
     pagecolor="#ffffff"
     bordercolor="#000000"
     borderopacity="0.25"
     inkscape:showpageshadow="2"
     inkscape:pageopacity="0.0"
     inkscape:pagecheckerboard="0"
     inkscape:deskcolor="#d1d1d1"
     inkscape:document-units="px"
     showborder="false"
     showguides="true"
     inkscape:zoom="0.42055155"
     inkscape:cx="364.99687"
     inkscape:cy="633.69164"
     inkscape:window-width="1366"
     inkscape:window-height="647"
     inkscape:window-x="0"
     inkscape:window-y="32"
     inkscape:window-maximized="1"
     inkscape:current-layer="layer2"><sodipodi:guide
       position="-318.20462,360.06286"
       orientation="1,0"
       id="guide1"
       inkscape:locked="false" /><sodipodi:guide
       position="-318.20462,360.06286"
       orientation="0,-1"
       id="guide2"
       inkscape:locked="false" /><sodipodi:guide
       position="-32.454619,2.8753642"
       orientation="1,0"
       id="guide3"
       inkscape:locked="false" /><sodipodi:guide
       position="-32.454619,2.8753642"
       orientation="0,-1"
       id="guide4"
       inkscape:locked="false" /><sodipodi:guide
       position="-293.60944,150.19035"
       orientation="0,-1"
       id="guide1131"
       inkscape:locked="false" /><sodipodi:guide
       position="-290.16567,57.413931"
       orientation="0,-1"
       id="guide1132"
       inkscape:locked="false" /><sodipodi:guide
       position="-302.92088,117.97716"
       orientation="1,0"
       id="guide1137"
       inkscape:locked="false" /><sodipodi:guide
       position="-175.11484,347.88621"
       orientation="0,-1"
       id="guide5"
       inkscape:locked="false" /><sodipodi:guide
       position="-177.40484,184.22996"
       orientation="1,0"
       id="guide6"
       inkscape:locked="false" /></sodipodi:namedview><defs
     id="defs1"><linearGradient
       id="linearGradient1128"
       inkscape:collect="always"><stop
         style="stop-color:#47e8be;stop-opacity:1;"
         offset="0"
         id="stop1128" /><stop
         style="stop-color:#2ea480;stop-opacity:1;"
         offset="1"
         id="stop1129" /></linearGradient><linearGradient
       id="linearGradient1126"
       inkscape:collect="always"><stop
         style="stop-color:#000000;stop-opacity:0.34359101;"
         offset="0"
         id="stop1126" /><stop
         style="stop-color:#000000;stop-opacity:0;"
         offset="1"
         id="stop1127" /></linearGradient><linearGradient
       id="linearGradient20"
       inkscape:collect="always"><stop
         style="stop-color:#2e92a4;stop-opacity:1;"
         offset="0"
         id="stop20" /><stop
         style="stop-color:#25b6a5;stop-opacity:1;"
         offset="1"
         id="stop21" /></linearGradient><linearGradient
       id="linearGradient18"
       inkscape:collect="always"><stop
         style="stop-color:#1dde6a;stop-opacity:1;"
         offset="0"
         id="stop18" /><stop
         style="stop-color:#5e9099;stop-opacity:1;"
         offset="1"
         id="stop19" /></linearGradient><linearGradient
       inkscape:collect="always"
       xlink:href="#linearGradient18"
       id="linearGradient19"
       x1="87.165733"
       y1="140.73433"
       x2="87.165733"
       y2="257.39691"
       gradientUnits="userSpaceOnUse" /><linearGradient
       inkscape:collect="always"
       xlink:href="#linearGradient20"
       id="linearGradient21"
       x1="87.165733"
       y1="170.28958"
       x2="217.52542"
       y2="170.28958"
       gradientUnits="userSpaceOnUse" /><linearGradient
       inkscape:collect="always"
       xlink:href="#linearGradient1128"
       id="linearGradient1129"
       x1="130.36942"
       y1="54.833466"
       x2="130.36942"
       y2="173.39397"
       gradientUnits="userSpaceOnUse" /><clipPath
       clipPathUnits="userSpaceOnUse"
       id="clipPath1131"><path
         id="path1131"
         style="display:inline;fill:url(#linearGradient1131);stroke-width:0.155002"
         inkscape:label="Leyte Island"
         d="m 150.08684,46.946489 c 0,0 -0.43167,0.06063 -0.6415,0.07599 -0.20982,0.01537 -0.47167,0.272769 -0.47167,0.272769 l -0.56188,0.449265 -0.56793,0.535546 0.40384,0.156816 0.48954,0.04117 -0.0251,0.274584 -0.19588,0.193448 c 0,0 -0.56583,0.411498 -0.62636,0.418991 -0.0606,0.0075 0.0636,0.265806 0.0636,0.265806 l 0.49891,0.201927 c 0,0 0.70627,0.01357 0.80801,0.02604 0.10176,0.01246 0.77743,0.67087 0.77743,0.67087 l 0.0829,0.606084 -0.25036,0.130783 -0.48439,0.548865 -0.082,-0.227658 -0.55947,-0.11716 -0.36723,0.318177 0.0142,0.43746 0.41839,0.297288 0.41717,0.06872 0.32303,0.188908 0.32938,0.340278 0.3651,0.02907 0.2107,-0.250362 0.27731,-0.0036 0.5752,0.314545 0.87129,0.04359 0.43746,-0.156213 -0.0627,-0.270346 -0.1653,-0.273979 -0.0266,-0.463796 c 0,0 0.10989,-0.443161 0.10989,-0.564004 0,-0.120841 -0.22736,-0.181644 -0.22736,-0.181644 l -0.31938,0.07357 0.01,0.819517 -0.28427,-0.06539 c 0,0 -0.3718,-0.481897 -0.42897,-0.526767 -0.0573,-0.04487 -0.18405,-0.563129 -0.17772,-0.677529 0.006,-0.114401 0.01,-0.553104 0.01,-0.553104 l -0.0518,-1.230029 0.10292,-0.536152 c 0,0 -0.16212,-0.78672 -0.20131,-0.903674 -0.0392,-0.116959 -0.34361,-0.540088 -0.34361,-0.540088 z m -4.17931,2.094651 -0.83253,0.04905 -0.17862,0.646954 0.21646,0.267018 c 0,0 -0.0548,0.755552 -0.0548,0.876427 0,0.120875 0.42686,0.818306 0.42686,0.818306 0,0 0.0489,0.355401 -0.0708,0.456226 -0.11979,0.100822 -0.36423,0.260924 -0.25339,0.371766 0.11084,0.110837 0.48196,0.429586 0.48196,0.429586 l 0.20738,0.548563 c 0,0 -0.0641,0.478128 0.016,0.769257 0.0802,0.291132 0.40626,0.617287 0.40626,0.617287 l -0.15952,0.154397 c 0,0 -0.23167,0.243658 -0.0984,0.37691 0.13324,0.133252 0.51254,0.519803 0.51254,0.519803 l 0.5537,0.02694 0.60336,0.219181 -0.009,0.301226 c 0,0 -0.13539,-0.05398 -0.1889,0.170137 -0.0535,0.224123 -0.21559,0.435631 -0.0808,0.649378 0.13477,0.213746 0.48348,0.668446 0.48348,0.668446 l 0.26974,0.484383 0.73263,-0.47742 0.52798,-0.464097 -0.72658,-0.03663 -0.6091,-0.05479 c 0,0 -0.0496,-0.190741 -0.0457,-0.382058 0.004,-0.191318 0.24703,-0.544325 0.24703,-0.544325 0,0 0.52228,0.299614 0.69479,0.319087 0.17252,0.01947 0.44293,0.01968 0.59398,0.01968 0.15105,0 0.20119,-0.232695 0.39568,-0.372369 0.19447,-0.139673 0.60487,-0.616884 0.60487,-0.7405 0,-0.123613 0.10278,-0.399611 -0.0251,-0.500126 -0.12791,-0.100512 -0.5628,-0.457438 -0.5628,-0.457438 0,0 -0.66164,-0.112617 -0.94696,-0.112617 -0.28533,0 -0.80472,-0.05827 -1.0166,-0.194662 -0.21187,-0.136398 -1.03809,-0.78712 -1.03809,-0.78712 l -0.30697,-1.098946 -0.20888,-1.154039 -0.56462,-0.521925 -0.082,-0.541298 c 0,0 0.31509,-0.06696 0.47288,0.01423 0.1578,0.08119 0.46955,0.161663 0.46955,0.161663 l 0.17074,-0.342096 -0.28699,-0.395983 -0.26914,-0.512839 z m -52.138329,5.559502 -0.960892,0.905795 -0.752004,2.312321 1.165243,2.817892 c 0,0 0.43229,2.594007 0.59821,2.942931 0.165933,0.34892 1.235781,2.143998 1.235781,2.143998 l 1.216406,1.252734 0.761389,3.039806 0.49952,0.440486 -0.311216,1.659313 0.578837,3.22992 1.140722,2.706793 1.451333,3.164835 1.01387,2.530895 1.51824,1.309955 3.51661,3.48846 0.71295,1.133459 1.75165,2.382554 1.12014,0.448054 1.07169,1.267568 2.07558,0.813766 3.25626,-0.157731 3.20268,0.603059 1.89515,1.460717 1.57878,1.112261 0.75171,-0.271254 0.82011,0.343914 0.28337,1.019021 -0.46047,-0.03515 -0.8625,-0.458041 -0.3651,0.399915 -0.21737,0.32272 1.97749,1.260302 0.6406,0.31092 c 0,0 -0.25178,0.98676 -0.2867,1.07987 -0.0349,0.0931 0.11807,0.63968 0.11807,0.63968 l 0.50558,0.21162 c 0,0 -0.19032,0.3095 -0.17802,0.38871 0.0123,0.0792 0.31061,0.51647 0.31061,0.51647 l 0.36511,0.16349 c 0,0 0.69884,-0.1097 0.75745,-0.11656 0.0586,-0.007 0.16863,-0.35874 0.16863,-0.35874 l 0.74382,-0.11232 0.15259,0.15863 -0.0196,0.20799 -0.67572,0.45077 -0.23705,0.42808 0.11836,0.43261 -0.24915,0.1099 c -0.24925,0.10984 -0.11535,0.62061 -0.11535,0.62061 l -0.15499,0.24522 c 0,0 -0.37414,0.14565 -0.60638,0.26067 -0.23227,0.11502 1.08228,0.13501 1.08228,0.13501 l 0.55704,-0.0941 1.16131,-0.0696 0.0929,-0.72173 c 0,0 0.41872,-0.1541 0.77442,-0.2316 0.35569,-0.0775 1.34294,-0.0387 1.34294,-0.0387 0,0 0.69627,0.38751 0.91942,0.46501 0.22315,0.0775 0.0775,0.53215 0.0775,0.77531 0,0.24315 0.0669,0.23523 0.0669,0.23523 l 0.19253,0.48226 -0.75744,0.11625 c 0,0 -0.38006,-0.61347 -0.52314,-0.79529 -0.14307,-0.18181 -0.37117,-0.51526 -0.37117,-0.51526 l -0.3993,0.0179 0.21343,0.69509 0.53253,0.43504 -0.2755,0.34239 c 0,0 -0.49773,-0.12484 -0.61245,-0.16619 -0.11471,-0.0414 -0.39205,0.10534 -0.39205,0.10534 l -0.23311,0.27126 0.45987,0.13593 c 0,0 0.63181,0.17933 0.69417,0.19163 0.0624,0.0123 0.16259,0.26459 0.16259,0.26459 l -0.28429,0.32545 c 0,0 -0.26495,0.16735 -0.3327,0.21252 -0.0677,0.0451 -0.55673,0.0569 -0.55673,0.0569 l -0.47924,0.0757 0.49952,0.29033 c 0,0 0.73203,-6e-5 0.9957,-0.0433 0.26367,-0.0432 0.36633,0.39296 0.36633,0.39296 l 0.34541,0.30969 -0.40264,0.1314 0.16075,0.29516 0.50588,0.19134 0.75413,-0.31092 c 0,0 0.52775,0.5057 0.6421,0.57309 0.11437,0.0674 0.42966,0.44319 0.58216,0.59942 0.15253,0.15623 0.12838,1.12377 0.12838,1.12377 l 0.78077,0.16409 0.49405,0.1217 0.0366,0.41324 c 0,0 0.38385,0.23323 0.45684,0.26065 0.073,0.0274 0.14561,0.3091 0.14561,0.3091 l -0.0639,0.47681 c 0,0 -0.09,0.0368 -0.35573,0.0923 -0.26574,0.0555 0.10446,0.30062 0.10446,0.30062 l 0.34452,0.16318 c 0,0 0.57845,-0.16228 0.71869,-0.20223 0.14025,-0.04 0.18807,0.2783 0.23886,0.34149 0.0507,0.0632 0.0548,0.61615 0.0548,0.6745 0,0.0583 0.32484,0.50617 0.32484,0.50617 l 0.20011,0.75867 c 0,0 0.21898,0.31479 0.29699,0.35451 0.078,0.0397 0.30848,0.0285 0.30848,0.0285 l 0.46501,-0.12988 c 0,0 0.14907,0.13029 0.30366,0.15712 0.15461,0.0268 0.38326,0.51162 0.38326,0.51162 l 0.61637,0.44261 c 0,0 0.31564,-0.30183 0.39538,-0.37327 0.0798,-0.0714 0.12807,-0.46895 0.12807,-0.46895 0,0 0.64777,-0.21007 0.70931,-0.25793 0.0615,-0.0478 0.34603,-0.4199 0.34603,-0.4199 l 0.9385,-0.0496 c 0,0 0.19898,-0.34761 0.26156,-0.38569 0.0626,-0.0381 0.2764,0.0272 0.2764,0.0272 l 0.4968,-0.33301 1.75134,-0.68541 c 0,0 0.58389,-0.0403 0.65785,-0.0403 0.074,0 0.49195,-0.0602 0.49195,-0.0602 0,0 0.34307,-0.15076 0.40205,-0.15076 0.059,0 0.23856,0.0978 0.23856,0.0978 0,0 0.38373,0.30131 0.44592,0.32727 0.0622,0.0259 0.32272,0.30818 0.32272,0.30818 l 0.44957,0.19588 0.2213,0.6309 0.46018,0.45926 -0.0578,0.42716 0.15956,1.15404 c 0,0 0.16611,0.51028 0.22855,0.61851 0.0625,0.10821 0.29851,0.20646 0.29851,0.20646 l 0.39628,0.36177 -0.0127,0.29245 c 0,0 -0.12247,0.0951 -0.19282,0.13472 -0.0704,0.0396 -0.77382,-0.0403 -0.77382,-0.0403 0,0 -0.35456,-0.26574 -0.39567,-0.33847 -0.0412,-0.0727 -0.19225,-0.51919 -0.19225,-0.51919 l 0.0742,-0.46894 c 0,0 -0.15554,-0.41641 -0.16287,-0.55704 -0.007,-0.14064 -0.23534,0.14525 -0.31152,0.20889 -0.0762,0.0636 -0.48751,0.8623 -0.60426,1.06019 -0.11679,0.19788 -0.097,0.41632 -0.10959,0.49195 -0.0126,0.0756 -0.25212,0.34849 -0.33817,0.47015 -0.0861,0.12167 -0.43746,0.72264 -0.43746,0.72264 l -0.39658,0.45653 -0.57733,0.48166 c 0,0 -1.32287,0.57011 -1.4147,0.58247 -0.0919,0.0123 -0.096,0.41348 -0.096,0.60366 0,0.19018 0.0962,0.74075 0.1099,0.86281 0.0136,0.12205 0.58293,0.79708 0.62031,0.87188 0.0375,0.0748 0.45077,0.62668 0.45077,0.62668 l 0.1553,0.51132 0.38418,0.60427 -0.14833,0.52798 -0.27156,0.1438 -0.13382,0.17982 -0.0397,-0.3321 -0.31091,-0.16439 c 0,0 -0.20533,0.21909 -0.38841,0.35208 -0.18307,0.133 -0.4099,0.57158 -0.4099,0.57158 0,0 -0.32226,0.40427 -0.4538,0.44563 -0.13156,0.0414 -0.25654,0.0822 -0.38752,0.10959 -0.13095,0.0275 -0.20143,0.15234 -0.24249,0.25401 -0.0411,0.10165 0.12048,0.50345 0.12048,0.50345 l 0.17621,0.53857 c 0,0 -0.30894,0.0569 -0.4629,0.0942 -0.15395,0.0371 -0.6895,0.27782 -0.7959,0.30547 -0.10639,0.0276 -0.7532,0.0433 -0.7532,0.0433 0,0 -0.57127,0.46349 -0.6951,0.46349 -0.12383,0 -0.37987,-0.2711 -0.47561,-0.43534 -0.0957,-0.16424 -0.79888,-0.44957 -0.91304,-0.44957 -0.11418,0 -0.35656,0.2061 -0.62911,0.27489 -0.27255,0.0688 -0.32363,0.1102 -0.50739,0.1102 -0.18376,0 -0.59859,0.055 -0.66058,0.10445 -0.062,0.0494 -0.16419,0.23216 -0.28518,0.50043 -0.12099,0.26826 0.0688,0.39905 0.15865,0.48891 0.0899,0.0899 0.35662,0.36862 0.53676,0.47107 0.18011,0.10247 0.41081,0.12322 0.51192,0.15046 0.10111,0.0273 0.1774,0.28823 0.1774,0.34725 0,0.059 -0.21534,0.36965 -0.23643,0.45046 -0.0211,0.0808 -0.68239,0.21348 -0.93184,0.25461 -0.24944,0.0411 -0.33312,0 -0.43715,0 -0.10402,0 -0.29063,-0.33786 -0.29063,-0.33786 l -0.46985,-0.20404 -0.59246,0.0309 -0.84948,0.52829 c 0,0 -0.43647,0.23286 -0.53253,0.28699 -0.096,0.0541 -0.27057,0.56542 -0.28427,0.63908 -0.0137,0.0737 0.0413,0.55824 0.0303,0.7393 -0.0109,0.18106 -0.0959,0.0959 -0.21556,0.13683 -0.11965,0.0409 -0.61732,0.0411 -0.68843,0.0615 -0.0711,0.0204 -0.13405,0.28705 -0.0817,0.38236 0.0523,0.0953 0.58248,0.16983 0.58248,0.16983 l -0.13169,0.4302 c 0,0 -0.36231,0.0752 -0.54555,0.14168 -0.1832,0.0664 0.29777,0.43371 0.45443,0.47197 0.15666,0.0382 0.52766,0.41323 0.52766,0.41323 l 0.28972,0.94152 c 0,0 0.57689,0.57376 0.81195,0.68904 0.23505,0.11528 1.18976,-0.30607 1.18976,-0.30607 l 0.58157,-0.35663 0.23704,-0.13986 0.7066,0.13108 0.0942,0.60245 0.31213,0.0609 -0.0484,-0.36177 -0.13412,-0.25279 -0.27459,-0.56492 -0.0529,-0.37539 0.37447,-0.53615 -0.34935,-0.35663 0.46136,-0.68903 0.39447,0.41838 0.51648,0.96907 c 0,0 0.0387,0.92624 0.0872,1.16525 0.0484,0.23901 0.58823,0.10474 0.58823,0.10474 l 0.7508,0.66966 1.02658,0.52646 c 0,0 1.2464,0.0457 1.33749,0.0457 0.0911,0 0.55462,0.37449 0.55462,0.37449 0,0 0.0136,0.51874 0.0136,0.71508 0,0.19633 0.22372,0.38629 0.22372,0.38629 0,0 0.40614,0.16755 0.48499,0.20768 0.0789,0.0402 1.24873,0.1378 1.39836,0.15227 0.14961,0.0144 0.25459,0.31001 0.25459,0.31001 l -0.42231,0.17862 c 0,0 -0.30198,0.35897 -0.35481,0.49104 -0.0529,0.13207 0.0761,0.94212 0.089,1.03143 0.0129,0.0893 0.13503,0.58096 0.13503,0.58096 l -0.0376,1.23215 c 0,0 0.30224,0.59381 0.35936,0.65633 0.0571,0.0625 0.32847,0.81395 0.32847,0.9388 0,0.12484 -0.12201,0.48983 -0.12201,0.48983 l -0.38538,0.26611 -0.66724,0.98148 -0.49438,0.90004 -0.24703,1.12649 0.23644,0.25824 0.2876,0.62031 0.11837,0.80195 1.0051,0.13473 0.41354,0.74564 0.1992,0.62607 0.42353,-0.18286 0.18346,-0.45593 0.0657,-0.1002 0.54311,-0.23462 c 0,0 0.46814,0.1105 0.57369,0.1105 h 0.75352 c 0.11558,0 0.92849,-0.18589 0.92849,-0.18589 l 0.33938,0.0633 0.9506,-0.23069 1.84641,0.15561 0.96392,0.0291 1.91603,-0.11625 0.9612,0.24158 1.29088,1.67354 1.03991,1.83157 0.343,1.71684 v 0.76199 l 1.08805,1.12286 -0.0388,0.91003 c 0,0 0.31091,1.35591 0.31091,1.53399 0,0.17808 0.52223,2.54905 0.52223,2.54905 l 0.31394,1.49312 1.32842,0.69629 0.80952,-0.43867 0.29639,-0.72021 0.17891,-1.02023 1.48615,-1.80826 0.84373,0.0388 1.66749,0.004 c 0,0 1.49569,1.21495 1.78163,1.29634 0.28592,0.0814 1.56273,0 1.56273,0 l 1.35203,0.26155 0.0775,0.88188 0.95756,0.76957 v -0.45079 l 0.68541,-0.73867 1.0723,0.66147 0.0923,0.89824 0.36026,0.0388 1.80039,-0.43957 0.23401,-0.88038 0.45018,0.63515 0.54765,0.004 -0.0318,-1.21217 0.37571,-0.7296 0.90065,0.0721 2.30807,2.15761 c 0,0 0.85251,1.08502 1.01146,1.08502 0.15894,0 0.26883,-0.25915 0.26883,-0.25915 l -0.0736,-0.63514 -0.30093,-1.01356 c 0,0 0.0872,-2.18371 0.0872,-2.43584 0,-0.25213 0.99268,-0.90702 0.99268,-0.90702 l 1.10167,-0.13804 0.81498,0.3872 1.2052,-0.38538 0.0739,0.48014 -0.52072,1.2939 0.82497,1.07927 c 0,0 1.70393,-0.21728 1.90786,-0.29094 0.20392,-0.0737 1.40865,-0.80044 1.40865,-0.80044 0,0 2.43425,-1.11595 2.72767,-1.15555 0.29343,-0.0396 0.38266,0.874 0.38266,0.874 l -0.29578,0.66483 0.48954,1.28815 0.43685,1.18341 1.10107,1.40016 1.25667,0.97422 0.45955,1.05838 1.72925,1.59967 0.88763,0.32513 1.0611,0.48864 0.59791,0.2988 0.76442,0.76472 1.41681,1.40198 0.28518,0.60245 0.61427,0.30879 0.43715,1.55486 1.40593,0.42627 -1.18221,-1.73016 -1.77435,-2.42919 -1.84913,-2.3008 -2.14702,-2.95534 c 0,0 -2.2343,-2.79109 -2.53121,-3.28594 -0.29691,-0.49484 -1.66688,-3.55263 -1.66688,-3.55263 l -0.5531,-1.91301 -2.23816,-1.36808 -2.05045,-1.67324 -1.44194,-0.75201 -0.54735,1.06988 2.70436,1.73349 -3.15544,0.87008 -2.46793,0.0529 -0.98663,-1.84853 0.10959,-2.27811 0.88521,-1.26847 c 0,0 0.93454,-0.83347 1.19702,-1.43589 0.2625,-0.60242 0.60216,-0.75322 0.60216,-0.75322 l 2.14641,-1.05989 1.81614,-2.24511 -0.004,-1.84156 -2.47913,-1.49069 -3.39491,-2.26085 -2.44947,-4.04551 -0.98148,-3.06039 -2.36378,-3.37826 -0.21798,-4.04127 -0.40143,-5.18168 c 0,0 -0.5811,-4.85934 -0.73203,-5.76264 -0.15091,-0.90331 -0.54825,-4.00524 -0.54825,-4.00524 l -0.97997,-5.00851 -0.75896,-2.76704 c 0,0 0.55533,-4.0258 0.95211,-4.6095 0.39676,-0.58372 2.72162,-3.666479 2.72162,-3.666479 0,0 2.49452,-2.275433 2.45673,-2.908718 -0.0378,-0.633286 -1.75515,-1.08576 -2.26418,-1.384729 -0.50904,-0.298971 -1.83643,-2.820265 -1.83643,-3.533267 0,-0.713004 1.28574,-3.167258 1.28574,-3.167258 0,0 2.49287,-0.651013 2.96866,-1.017204 0.47579,-0.366188 -0.78401,-1.80072 -1.18673,-2.303843 -0.40273,-0.503127 -2.68611,-1.915332 -3.39462,-2.70346 -0.7085,-0.788128 -5.57736,-1.84671 -5.57736,-1.84671 0,0 -4.24895,-0.6527 -4.8853,-1.398653 -0.63636,-0.745953 -1.07745,-3.103682 -1.07745,-3.103682 l 0.8295,-2.400723 0.77804,-3.274121 c 0,0 -0.44162,-0.680223 -0.65089,-1.090769 -0.20927,-0.410546 -0.69266,-1.457174 -0.69266,-1.789189 v -1.09841 c 0,0 -0.49106,-0.381772 -0.79409,-0.684797 -0.30302,-0.303022 -1.09539,-0.21921 -1.55759,-0.323022 -0.4622,-0.103809 -0.33846,-0.435337 -0.33846,-0.435337 0,0 1.12889,-0.299133 1.2385,-0.663305 0.1096,-0.36417 -0.98117,-0.688732 -0.98117,-0.688732 l -2.71437,-2.198796 -0.70235,-0.164385 c 0,0 -2.32873,-2.425687 -2.44432,-2.582061 -0.11557,-0.156374 -0.44803,-0.265094 -0.70478,-0.284877 -0.25674,-0.01979 -0.58145,-0.03874 -0.74988,-0.182856 -0.16842,-0.144111 -0.36905,-0.505733 -0.42716,-0.728086 -0.0581,-0.222361 -0.54339,-0.188304 -0.65149,-0.188304 -0.10809,0 -0.0778,0.669658 -0.0778,0.669658 0,0 -0.71327,0.154096 -0.85191,0.154096 -0.13864,0 -0.98844,0.102928 -0.98844,0.102928 l -0.55764,0.193754 c 0,0 -0.25403,-0.295698 -0.29275,-0.42232 -0.0387,-0.126621 -0.19372,-0.484184 -0.23039,-0.576413 -0.0367,-0.09223 -0.25248,-0.135932 -0.25248,-0.135932 0,0 -0.17268,-0.03876 -0.44806,-0.05813 -0.27535,-0.01937 -0.31091,0 -0.31091,0 l -0.40597,0.219789 -0.52949,-0.05812 -0.1874,0.39356 0.46107,0.61668 c 0,0 0.36995,0.94909 0.36995,1.125583 0,0.176495 -0.0391,0.580892 -0.1323,0.6742 -0.0933,0.09331 -0.67767,0.232503 -0.818,0.232503 -0.14033,0 -0.79527,-0.07841 -1.04112,-0.07841 -0.24585,0 -0.51782,0.23204 -0.70751,0.402341 -0.18967,0.170305 -0.72596,0.4532 -0.72596,0.4532 h -0.87521 c -0.0818,0 -0.40084,-0.431705 -0.40084,-0.431705 l -0.1774,-0.759875 c 0,0 -0.0751,-0.798619 -0.0751,-1.165543 0,-0.366927 -0.61335,-0.209195 -0.61335,-0.209195 l -0.56279,0.318783 -0.23129,0.634844 -0.68419,0.0016 -1.29815,-0.331496 -0.66088,-0.619406 0.10203,-0.696902 -0.16439,-0.633333 -1.1713,0.933344 -0.78864,0.103537 -0.65997,1.077754 -0.90579,-0.06903 -0.77956,-0.278521 -0.47378,-0.347544 0.0212,-0.426257 -0.41082,-0.350877 -0.23583,-0.695087 -0.57218,-0.104143 -0.92063,0.158031 0.34936,0.3869 1.04415,0.521621 0.0378,0.935765 c 0,0 -1.40928,1.910763 -1.87728,2.172454 -0.46801,0.261691 -2.35199,0.05479 -2.35199,0.05479 l -0.95272,-0.521012 -1.00448,-0.275492 -1.85307,0.533728 -1.38988,1.007213 h -1.00872 l -2.06831,-0.07205 -1.72198,0.273071 -2.69862,0.168323 -2.51667,-0.274889 -7.71228,-0.867648 c 0,0 -1.69759,-0.480849 -2.64321,-0.59458 -0.94563,-0.113733 -2.79992,0.207968 -3.60381,-0.16257 -0.80389,-0.370539 -3.24904,-0.712648 -3.7358,-0.712648 -0.486754,0 -1.261896,0.340024 -1.894843,0.395981 -0.632944,0.05596 -1.327814,0.106564 -1.327814,0.106564 0,0 -0.545145,-1.084967 -0.758968,-1.402287 -0.213823,-0.317317 -1.547299,-0.413236 -1.547299,-0.413236 l -0.09337,-0.937028 z m 2.902662,57.305488 -0.973913,0.20617 -0.257932,0.59518 -0.688731,0.24401 -0.428982,0.2758 c 0,0 -0.118674,0.55293 -0.118674,0.68237 0,0.12943 0.358159,0.68861 0.428075,0.79348 0.06992,0.10488 0.730811,0.7738 0.730811,0.7738 0,0 0.781005,0.49134 0.873403,0.49134 0.0924,0 0.702656,-0.0363 0.702656,-0.0363 l 0.08477,-0.2528 0.44291,0.1644 c 0,0 0.554209,-0.13885 0.665419,-0.25007 0.11121,-0.11121 0.432009,-0.58156 0.432009,-0.58156 l -0.06054,-1.0496 -0.242493,-1.24062 -0.31727,-0.22403 -0.643623,-0.36873 z m 30.786747,5.74357 -0.14077,0.14198 0.0618,0.21435 0.69932,0.42474 -0.0724,0.30939 -0.19254,0.0751 -0.0291,0.60518 c 0,0 0.005,0.27731 -0.0394,0.287 -0.0442,0.01 -0.0948,-0.0133 -0.0948,0.0593 0,0.0726 -0.0453,0.12676 0.0291,0.2661 0.0744,0.13933 0.35494,0.36098 0.40052,0.3978 0.0456,0.0368 0.28397,0.073 0.28397,0.073 l 0.16408,0.0587 0.0378,0.16894 c 0,0 0.25332,0.0408 0.33816,0.0314 0.0848,-0.009 0.19471,-0.12636 0.28852,-0.13501 0.0938,-0.009 0.32847,-0.0778 0.32847,-0.0778 l 0.19556,-0.3418 0.18073,-0.39962 -0.23795,-0.0833 -0.27489,-0.1329 -0.059,-0.37086 0.1765,-0.22099 0.27851,-0.13775 0.10929,-0.16802 -0.11352,-0.26187 -0.12473,-0.16076 -0.37751,-0.0339 -0.26248,0.22525 -0.35087,-0.14229 -0.0935,-0.30395 c 0,0 -0.27553,-0.18377 -0.37812,-0.20466 -0.1026,-0.0209 -0.53282,-0.14683 -0.53282,-0.14683 z m -1.6363,0.89005 c 0,0 -0.35261,0.082 -0.55492,0.28427 -0.20232,0.20231 0.13018,0.27549 0.13018,0.27549 l 0.43443,0.53071 -0.0663,0.33604 -0.12988,0.1553 h -0.41536 l -0.65664,-0.38569 -0.19254,0.19799 0.28246,0.55492 0.27761,0.19013 0.43352,-0.28004 0.48922,0.34875 v 1.13921 c 0,0.19087 -0.10384,0.50073 -0.10384,0.50073 l -0.43533,0.38085 0.2876,0.68419 0.0621,-0.53373 0.34906,-0.25218 0.42323,0.48772 0.29123,0.53736 c 0,0 -0.13956,0.52356 -0.13956,0.81224 0,0.28868 0.19133,0.56431 0.19133,0.56431 l 0.44291,-0.10596 0.003,-0.55734 0.41899,-0.0239 0.45259,0.88551 0.65817,0.53585 0.17709,0.32575 c 0,0 -0.29335,0.17639 -0.29335,0.32968 0,0.15328 1.171,0.36571 1.171,0.36571 l 0.0272,0.55704 0.93699,0.2985 -0.16439,0.50406 c 0,0 -0.57125,0.28595 -0.91215,0.20374 -0.3409,-0.0822 -0.54463,-0.73172 -0.54463,-0.73172 0,0 -0.65756,0.24654 -0.65756,0.39326 0,0.14672 0.42051,0.95968 0.42051,0.95968 0,0 0.0533,0.70714 0.0533,0.83496 0,0.12782 0.43261,0.43534 0.43261,0.43534 0,0 0.87157,0.27064 1.00146,0.27064 0.12989,0 1.50946,0.23584 1.50946,0.23584 l -0.004,0.32908 c 0,0 -0.16089,0.0515 -0.23523,0.0775 -0.0743,0.0259 -0.36602,0.16499 -0.36602,0.16499 l -0.59488,-0.2658 -0.24097,0.24158 0.50617,0.42505 0.0251,0.58973 c 0,0 0.556,0.22101 0.6618,0.22101 0.10579,0 0.43321,0.16135 0.43321,0.16135 l 0.52465,0.15108 0.28215,0.53916 0.39144,-0.31061 0.44594,-0.43503 0.36238,-0.62909 c 0,0 -0.091,-0.54051 -0.155,-0.61758 -0.064,-0.0771 0.0233,-0.70237 0.0233,-0.70237 l 0.22736,-0.55098 c 0,0 -0.4161,-0.1546 -0.45411,-0.17346 -0.038,-0.0189 -0.13411,-0.36148 -0.13411,-0.36148 0,0 0.50026,-0.18398 0.5534,-0.1977 0.0531,-0.0137 -0.11443,-0.50556 -0.11443,-0.50556 l 0.11352,-0.27701 c 0,0 0.80149,-0.3354 0.8507,-0.35421 0.0493,-0.0188 0.0129,-0.25104 -0.0633,-0.35571 -0.0762,-0.10467 -0.40174,-0.20613 -0.4868,-0.27004 -0.085,-0.0639 -0.61063,0.0944 -0.61063,0.0944 l -0.45864,0.32635 c 0,0 -0.32655,-0.4691 -0.37237,-0.45744 -0.0458,0.0117 -0.37996,0.32333 -0.49195,0.32333 -0.112,0 -0.42989,-0.28397 -0.42989,-0.28397 0,0 -0.3103,-0.21464 -0.37752,-0.21464 -0.0672,0 -0.49679,0.32575 -0.49679,0.32575 l -0.099,-0.28216 -0.0799,-0.39749 -0.44624,-0.28852 -0.079,-0.46893 0.75503,-0.026 -0.25884,-0.23341 -0.033,-0.34301 0.15984,-0.22977 0.1871,-0.41324 0.38811,-0.41263 -0.45775,-0.31001 -0.45622,-0.50164 -0.37359,0.12412 -0.0596,-0.27973 -0.14925,-0.44653 -0.54978,-0.3975 -0.48862,-0.0518 -0.0472,-0.41384 0.52827,-0.0548 0.23009,-0.26186 c 0,0 0.1918,-0.52074 0.16439,-0.63848 -0.0274,-0.11777 -0.29912,-0.16197 -0.29912,-0.16197 l -0.41202,0.0612 -0.18316,0.40265 c 0,0 -0.31756,-0.28818 -0.31756,-0.17074 0,0.11744 -0.21011,0.79317 -0.21011,0.79317 l -0.5643,-0.24855 0.0602,-0.54281 v -0.61184 l -0.78106,-0.34361 -0.61577,-0.50284 -0.0518,-0.43656 c 0,0 -0.38573,-0.43147 -0.3654,-0.71597 0.0203,-0.28451 0.0642,-0.44775 0.0642,-0.44775 z m -19.2533,1.71472 c -0.0227,0.003 -0.043,0.0106 -0.0593,0.0245 -0.1308,0.11142 -1.06898,0.409 -1.06898,0.409 l -0.84403,-0.23341 h -1.37141 l -0.76472,0.10627 c 0,0 -0.55632,0.29213 -0.64362,0.29213 -0.0873,0 -0.9058,0.0833 -0.9058,0.0833 l -0.46107,0.17922 -0.612139,0.23251 -0.526161,0.68964 -0.335738,0.2216 -0.517379,-0.0166 -0.712952,-0.28761 0.157726,0.21979 -0.03451,0.18437 -0.359958,0.043 -0.111712,0.2001 0.08356,0.31152 0.809221,0.42232 0.518292,0.0384 c 0,0 0.453501,0.348 0.453501,0.52616 0,0.17815 -0.117459,1.46223 -0.117459,1.46223 l 0.978448,0.29214 0.21827,0.44745 0.1871,1.30238 0.56127,0.77108 0.53131,0.0999 0.13956,0.92154 -0.50829,0.45472 -0.0551,0.57975 0.26762,0.77561 0.18346,0.25552 0.41354,0.17709 0.0836,0.2092 0.0633,0.58489 0.0566,0.39265 c 0,0 -0.0179,0.21651 0.16136,0.26883 0.17923,0.0523 0.54736,0.12988 0.54736,0.12988 0,0 0.14969,-0.0434 0.26792,0.0194 0.11824,0.0627 0.34876,0.27398 0.34876,0.27398 l 0.28457,1.36353 0.63969,0.71507 0.56824,0.84828 c 0,0 -0.0111,0.80752 0.32453,0.99086 0.33561,0.18335 0.95212,0.37813 0.95212,0.37813 l 0.3978,0.48529 c 0,0 0.52993,0.25168 0.63969,0.30819 0.10976,0.0565 0.56491,0.1553 0.56491,0.1553 l 0.76078,-0.0963 0.41415,-0.40447 0.48499,-0.43746 -0.0103,-0.58762 0.14078,-0.0505 h 0.35208 l 0.049,0.53766 0.22191,0.0999 0.5304,-0.2216 0.73687,0.11413 0.69206,0.0145 c 0,0 0.21355,-0.10999 0.38175,0.0406 0.16821,0.15055 0.44957,0.11232 0.44957,0.11232 0,0 0.10012,-0.27186 0.24401,-0.25249 0.14389,0.0194 0.27913,0.0439 0.27913,0.0439 0,0 -0.0444,0.21281 0.16256,0.29699 0.20699,0.0842 0.4193,0.1332 0.4193,0.1332 l 0.19738,-0.0878 c 0,0 0.34588,-0.0194 0.42778,-0.0194 0.0819,0 0.50739,-0.0711 0.50739,-0.0711 l 0.45441,-0.17014 0.056,-0.18287 0.14714,-0.21069 c 0,0 0.14322,-0.1065 0.23038,-0.20678 0.0872,-0.10026 0.20405,-0.42958 0.20405,-0.42958 l 0.25702,-0.10566 0.0884,0.11716 0.43201,-0.11868 0.0757,-0.61001 0.27429,-0.65513 0.11746,-1.04596 c 0,0 0.38471,-0.82332 0.35481,-0.93003 -0.0299,-0.10668 -0.26127,-0.78772 -0.26127,-0.78772 0,0 -0.40816,-0.64211 -0.49316,-0.65967 -0.085,-0.0176 -0.89675,-0.44758 -1.01781,-0.50406 -0.12106,-0.0564 -0.82509,-0.27585 -0.89913,-0.44532 -0.074,-0.16946 -0.31757,-0.57522 -0.31757,-0.57522 l 0.13562,-0.51222 -0.0463,-0.4859 -0.34997,-0.38449 -0.43594,-0.1898 -0.11807,-0.3433 -0.22615,-0.95031 -0.16862,-0.52524 -0.24371,-0.88007 -0.60003,-0.87976 v -0.38327 l -0.52313,-0.51315 -0.29699,-0.27549 -0.0984,-0.81952 -0.49316,-0.66421 -0.92608,-0.15439 c 0,0 -0.93334,-0.18769 -0.99964,-0.27337 -0.0663,-0.0857 -0.68328,-0.68571 -0.68328,-0.68571 h -0.59095 l -0.59125,-0.0312 -0.15833,-0.57338 -0.67753,-0.23341 c 0,0 -0.28615,-0.21567 -0.44533,-0.19498 z m -10.651268,10.70606 c 0,0 -0.327461,0.38244 -0.564912,0.70084 -0.237453,0.31841 -0.611232,0.65846 -0.611232,0.65846 0,0 -0.746911,0.47112 -0.954535,0.67873 -0.207624,0.20764 -0.191635,0.54759 -0.191635,0.72143 0,0.17385 0.329626,0.87642 0.444421,1.04627 0.1148,0.16986 -0.05494,0.71098 -0.08235,0.89914 -0.0274,0.18815 0.08214,0.4829 0.21676,0.6412 0.134625,0.1583 0.355113,0.51799 0.355113,0.51799 l 0.159239,1.42257 c 0,0 0.260303,0.56062 0.379638,0.7405 0.119335,0.17987 0.410747,0.46543 0.436853,0.62727 0.02611,0.16185 0.110197,1.00765 0.110197,1.15979 0,0.15216 0.490738,0.82225 0.490738,0.82225 l 0.469548,0.67692 0.670267,0.0754 0.510114,0.63697 0.03845,0.63877 -0.409911,-0.0875 -0.555525,-0.23826 -0.02694,0.87583 0.468637,1.22519 1.427417,-0.37298 0.851604,0.69752 -0.531003,0.32665 -0.904282,0.13229 -0.325144,0.7181 -0.08265,0.8616 0.553405,0.33997 -0.343305,0.38539 0.02937,0.76926 0.527372,0.37994 c 0,0 0.609132,0.73081 0.823148,0.84706 0.214014,0.11625 0.567333,0.56976 0.567333,0.56976 l 0.846458,1.70261 0.38812,1.5155 v 1.02145 l 0.17498,1.5376 -0.32756,2.81791 0.33906,1.29299 0.61123,0.88218 0.13593,1.19794 0.254,0.87159 -0.11262,1.01569 -0.42111,0.41112 c 0,0 -0.49738,0.26826 -0.78742,0.40294 -0.29005,0.13469 -0.0388,0.6955 -0.0388,0.94425 0,0.24874 -0.30924,0.73458 -0.47197,0.80892 -0.16273,0.0743 -0.0194,1.26181 -0.0194,1.26181 l 0.41747,0.94061 c 0,0 0.5815,0.92823 0.78925,0.96695 0.20774,0.0388 0.47408,-0.47438 0.47408,-0.47438 l 0.71265,-0.2407 c 0,0 -0.34948,0.8156 -0.57521,1.18613 -0.22571,0.37055 -0.0387,1.46405 -0.0387,1.46405 l 0.30244,1.402 c 0,0 0.54084,0.88893 0.64059,1.05866 0.0998,0.16975 0.38843,2.09436 0.38843,2.09436 l 0.45986,0.874 0.432,0.51376 1.95054,2.93111 0.65151,0.26642 0.60516,0.88006 0.72628,0.36117 0.80225,0.18921 1.38837,-0.30335 1.3584,-1.88726 0.88097,-1.5579 c 0,0 0.45017,-1.14123 0.45017,-1.35173 0,-0.2105 -0.30547,-0.66149 -0.30547,-0.66149 0,0 0.0775,-0.495 0.11625,-0.67692 0.0387,-0.18194 0.19134,-0.6309 0.19134,-0.6309 l -0.27338,-0.43384 -0.69236,-0.50497 v -0.91214 c 0,-0.18484 0.11625,-0.46191 0.11625,-0.69722 0,-0.2353 0.62395,-0.0775 0.62395,-0.0775 l 0.86735,0.21161 0.23764,-0.42503 0.4411,-0.67421 1.45405,-0.50344 c 0,0 0.97136,0.62382 1.18007,0.73958 0.20872,0.11577 0.72022,0.54493 0.72022,0.54493 l 0.40264,1.19521 0.82194,0.38902 1.48221,1.6248 c 0,0 0.73677,0.37723 0.9827,0.37723 0.2459,0 0.96692,0.42635 1.2061,0.53008 0.2392,0.10374 0.31335,0.85464 0.31335,0.85464 l 0.31727,1.23699 0.75533,0.76652 0.95271,1.99718 1.72835,1.64539 1.73165,2.11766 1.3593,2.91569 1.64842,5.23829 0.25036,1.01901 0.30517,1.59181 -0.26793,1.27725 -0.44503,0.60578 -0.917,0.8168 -0.91366,0.71566 -0.13473,2.77734 -0.32392,2.04227 0.24401,1.65205 -0.37237,1.00359 -0.75956,0.26914 -0.24555,0.49224 0.10417,0.56462 -0.95272,0.78651 -0.97967,0.94787 -0.2104,0.87826 0.4768,1.55577 0.35785,1.00964 -0.65876,1.55546 -0.11262,1.21218 v 0.76228 l 0.60639,1.15225 0.5201,0.98206 0.90366,0.43142 c 0,0 1.60228,1.16298 1.84883,1.40955 0.24657,0.24658 0.75503,1.16283 0.75503,1.16283 0,0 0.0475,1.57574 0.0475,1.82339 0,0.24765 -0.0863,1.28179 -0.0863,1.28179 l -0.80953,1.6021 -0.60488,1.17402 -0.41262,3.33981 -0.36209,0.47167 -0.43624,1.19855 v 1.1262 l 0.83131,1.17009 0.97937,1.04747 1.70804,0.30547 0.88673,0.53735 3.18603,0.0987 1.97932,0.10959 0.67631,0.54281 0.31697,0.92669 0.0899,1.02597 h 0.89216 l 1.33417,-0.17771 0.82707,1.39715 1.15374,1.17523 c 0,0 1.60101,1.12538 1.91393,1.39744 0.31292,0.27206 0.7084,0.38207 0.7084,0.38207 h 0.74082 l 0.68843,0.74412 0.77833,1.31086 0.50831,0.13564 -0.52345,-2.22484 0.33636,-0.10444 c 0,0 -0.43413,-1.41306 -0.43413,-1.70897 v -1.62327 c 0,-0.25602 -0.41931,-1.49373 -0.41931,-1.49373 0,0 -0.26158,-1.40661 -0.22825,-1.65567 0.0333,-0.24906 -0.574,-1.36415 -0.574,-1.36415 l -0.498,-1.72925 -0.85222,-1.31418 -0.46046,-2.38831 c 0,0 0.10891,-1.13766 0.21404,-1.48676 0.1051,-0.34909 0.16437,-1.6383 0.16437,-1.92088 0,-0.28259 -0.61908,-2.6744 -0.61908,-2.6744 l -0.1099,-2.80668 -0.4517,-2.32384 -0.0681,-1.54064 c 0,0 1.30651,0.10961 1.69926,0.10961 0.39277,0 1.38777,0.42565 1.38777,0.42565 l 1.47797,2.07164 0.4308,1.78858 -0.13109,0.95544 c 0,0 0.8365,0.94851 1.14314,1.30996 0.30666,0.36144 0.77744,0.65269 0.77744,0.65269 l 0.75502,3.61593 0.57552,1.14495 1.85154,2.35774 1.11832,0.74262 0.1314,0.62182 0.93455,-0.10353 -0.15863,-1.15132 -0.10354,-1.16039 -0.41263,-1.7671 -0.44534,-1.31995 0.33695,-1.83005 0.60518,-0.30637 0.58005,0.0457 0.96664,0.71992 c 0,0 1.36298,0.21905 1.6472,0.27126 0.28425,0.0522 1.08835,0.54039 1.08835,0.54039 l 1.13315,0.25883 1.47314,-0.0418 c 0,0 1.41738,-0.10961 1.63903,-0.24976 0.22163,-0.14014 0.80831,-1.03143 0.80831,-1.03143 l 0.36299,-2.23542 v -1.9557 c 0,0 -0.16441,-0.94638 -0.30304,-1.17402 -0.13867,-0.22765 -0.37297,-0.43626 -0.37297,-0.43626 l -0.38086,-0.79316 0.56583,-0.48984 -0.0987,-0.52646 -0.10323,-0.46532 -0.89581,-0.73838 -0.8846,-0.62939 -0.44412,0.42656 -0.66452,0.21799 -0.85432,-0.28398 c 0,0 -0.70186,-0.96335 -0.84101,-1.26183 -0.13916,-0.29847 -0.23707,-0.87702 -0.23707,-0.87702 l -0.6421,-0.55887 -0.10231,-0.63212 0.55279,-0.65298 0.0566,-1.56911 0.21223,-0.22433 0.28155,-0.60156 -0.42989,-0.86461 c 0,0 -1.52907,-1.78365 -1.59331,-1.83522 -0.0643,-0.0516 -0.35346,-0.84309 -0.38177,-0.97722 -0.0283,-0.13416 0.33923,-0.97852 0.42655,-1.28029 0.0873,-0.30177 1.49255,-1.83657 1.52975,-1.89879 0.0372,-0.0622 -0.0515,-1.43407 -0.0515,-1.43407 l -0.24459,-0.70993 -0.70872,-0.0148 -0.89065,-1.01719 -0.93549,-1.13618 -0.2119,-0.7181 c 0,0 -0.16787,-0.34806 -0.18891,-0.41021 -0.0211,-0.0622 -0.37933,-0.13472 -0.37933,-0.13472 l -0.53857,-0.10021 -0.58188,-0.27641 -0.66694,-0.53826 -0.62665,-0.86523 c 0,0 -0.22896,-0.90501 -0.20285,-1.01055 0.0261,-0.10554 0.46656,-0.58121 0.57368,-0.70204 0.10714,-0.12084 0.27641,-0.46288 0.27641,-0.46288 0,0 -0.42617,-0.19536 -0.57096,-0.27854 -0.14479,-0.0832 -0.58515,-0.2349 -0.66663,-0.25943 -0.0815,-0.0245 -0.40811,-0.4278 -0.52798,-0.54767 -0.11986,-0.11986 -0.4422,-0.3212 -0.52828,-0.3212 -0.0861,0 -0.50351,-0.0826 -0.56583,-0.10777 -0.0623,-0.0252 -0.33664,-0.15107 -0.33664,-0.15107 l -0.62454,0.13713 -0.54313,-0.0796 c 0,0 -0.34064,-0.0581 -0.58276,-0.0581 -0.24211,0 -0.41787,-0.0137 -0.50618,-0.0137 -0.0883,0 -0.26308,-0.19467 -0.26308,-0.19467 l 0.12958,-0.41143 c 0,0 0.0949,-0.24192 0.0675,-0.40021 -0.0274,-0.15827 -0.16296,-0.11435 -0.37935,-0.12807 -0.21637,-0.0137 -0.26925,0.1367 -0.34905,0.24551 -0.0798,0.10886 -0.4639,0.0681 -0.52404,0.0491 -0.0601,-0.019 -0.28246,-0.36148 -0.28246,-0.36148 0,0 -0.36057,-0.48623 -0.42203,-0.57521 -0.0614,-0.089 -0.25238,-0.9282 -0.29152,-1.07289 -0.0391,-0.14473 -0.1562,-1.18373 -0.1562,-1.18373 0,0 -0.13058,-1.05269 -0.11688,-1.13134 0.0137,-0.0786 0,-0.65319 0,-0.74564 0,-0.0924 -0.20767,-0.25883 -0.20767,-0.25883 l -0.20464,-1.06596 0.10383,-3.53357 c 0,0 0.48438,-0.62363 0.49891,-0.68146 0.0145,-0.0578 0.11566,-1.09198 0.11566,-1.09198 l 0.20494,-0.51738 0.51012,0.0369 0.84737,-2.00202 c 0,0 -0.4961,-1.6e-4 -0.55432,-0.0173 -0.0582,-0.0171 -1.5e-4,-0.35278 0.0118,-0.49346 0.012,-0.14068 0.84434,-0.20103 0.84434,-0.20103 0,0 0.0198,-1.56049 0.089,-1.69321 0.0692,-0.13271 0.38146,-2.91931 0.38146,-2.91931 l -0.23463,-2.70558 0.14986,-2.8049 c 0,0 -0.76864,-0.62079 -0.82769,-0.68357 -0.059,-0.0628 -0.55813,-0.72256 -0.60184,-0.86614 -0.0437,-0.14358 0.099,-0.47534 0.11142,-0.53888 0.0123,-0.0635 0.10565,-0.93347 0.10565,-1.04233 0,-0.10885 -0.13897,-0.71355 -0.13897,-0.71355 0,0 -0.52758,-0.40451 -0.74351,-0.5525 -0.21595,-0.14799 -0.46953,-0.46978 -0.5507,-0.54312 -0.0812,-0.0733 -0.244,-0.57853 -0.244,-0.57853 0,0 -0.0139,-0.59309 -0.002,-0.72536 0.012,-0.13228 0.41794,-0.55355 0.42626,-0.61184 0.008,-0.0583 1.14071,-2.02441 1.14071,-2.02441 l 0.33453,-0.91428 0.0684,-1.31025 0.12654,-1.53852 -0.26337,0.16862 -0.5189,0.34422 c 0,0 -0.10938,0.31358 -0.13563,0.40385 -0.0263,0.0903 0.0212,0.39871 0.0212,0.39871 l 0.17499,0.399 0.2222,0.39539 -0.27791,0.16227 c 0,0 -0.48652,-0.34743 -0.54977,-0.38721 -0.0632,-0.0398 -0.37813,-0.10777 -0.37813,-0.10777 l -0.29335,-0.54705 -0.15047,-0.58429 0.1862,-0.65967 c 0,0 0.39717,-0.36921 0.53342,-0.59306 0.13624,-0.22386 -0.0952,-0.36646 -0.12594,-0.46471 -0.0307,-0.0982 -0.4099,-0.037 -0.53888,-0.0248 -0.12896,0.0123 -0.58429,0.26036 -0.58429,0.26036 l -0.20313,-0.27398 -0.0814,-0.33937 -0.27034,-0.19981 v 0.26005 c 0,0 -0.27229,0.21706 -0.33181,0.21706 -0.0595,0 -0.45046,-0.0266 -0.45046,-0.0266 0,0 -0.26163,-0.48273 -0.31214,-0.57309 -0.0505,-0.0903 -0.29541,-0.30605 -0.45955,-0.33453 -0.16414,-0.0284 -0.20102,-1.19096 -0.20102,-1.19096 l 0.0469,-1.15859 -0.16227,-0.90216 0.05,-1.34568 0.27065,-0.49195 0.35874,-0.11988 0.17106,-0.32393 -0.0609,-0.28276 -0.22855,-0.15894 -0.0209,-0.21525 -0.0911,-0.29699 -0.0529,-0.45653 0.026,-0.33513 0.12262,-0.14199 0.15863,0.0303 0.15863,-0.1102 0.0766,-0.15893 0.0981,-0.14895 0.14803,-0.11383 0.1538,-0.17619 0.002,-0.3306 -0.17348,-0.17317 -0.16316,-0.27094 0.0739,-0.24915 0.21828,-0.22131 -0.0215,-0.26733 0.18678,-0.13804 -0.069,-0.45865 -0.30698,-0.30153 -0.23946,-0.33937 -0.48014,-0.43684 -0.37359,0.0563 -0.50073,-0.0403 -0.22433,-0.29577 -0.11232,-0.30214 -0.23068,-0.2761 -0.18498,-0.1659 -0.20889,0.18133 -0.10263,0.2525 -0.37266,-0.0669 -0.31183,0.008 -0.12442,0.11867 0.0266,0.31727 -0.13079,0.28155 -0.2997,0.28548 -0.3097,0.13382 -0.31576,-0.0512 -0.13321,-0.33211 -0.13472,-0.40385 -0.26489,-0.16803 -0.24916,0.0609 -0.12382,0.24643 -0.0381,0.28094 -0.0366,0.41263 -0.21918,0.39537 -0.2431,0.25824 -0.17559,-0.28215 -0.0469,-0.30577 0.20192,-0.22402 0.11717,-0.29669 -0.24582,-0.25793 -0.10294,-0.44564 -0.18377,-0.41929 -0.122,-0.28729 -0.20496,-0.42686 -0.0845,-0.17439 -0.18043,0.0191 -0.21615,0.21919 -0.19285,0.13139 -0.0333,0.2885 0.15651,0.20344 -0.0545,0.42111 0.0388,0.42565 -0.13805,0.30335 -0.20193,-0.0506 -0.23613,-0.28761 -0.165,-0.26187 -0.13653,-0.30455 -0.29244,-0.1659 -0.32,-0.0969 -0.26944,0.0866 -0.10717,0.38811 -0.19678,0.002 -0.1329,-0.34301 -0.0291,-0.20616 -0.16257,-0.32 -0.28669,-0.0248 -0.0115,0.3194 0.25581,0.24097 -0.28306,0.0327 -1.02295,0.009 -0.49679,-0.21252 -0.45199,0.0905 -0.0663,0.56976 -0.15288,0.62092 -0.15379,0.80982 -0.11535,1.5688 -0.19163,0.30394 -0.66179,0.19406 -0.37993,0.353 -0.36511,0.5982 -0.30939,0.26036 -0.61578,0.29063 -0.31818,0.60609 -0.42777,0.77562 -1.45678,0.51647 -1.09955,0.13895 -0.54523,0.57673 -0.43443,0.86401 -1.97022,0.38751 -1.53913,0.63575 -1.63782,0.0584 -0.45955,-0.31062 -0.51587,-0.31818 -0.53373,-0.008 -0.30577,-0.31153 -0.55189,-0.1992 -0.47076,0.22373 -1.01721,0.19012 -0.83828,-0.5861 -0.752,-1.1498 -0.88309,-0.53253 -0.55311,-0.83858 v -0.62001 -1.22913 l -0.2761,-0.78772 -0.51677,-0.72597 -10e-4,-0.96726 c 0,0 0.22615,-1.1134 0.22615,-1.23759 0,-0.1242 -0.27513,-0.24742 -0.47954,-0.43927 -0.2044,-0.19186 -0.78561,-0.62365 -0.78561,-0.62365 l -0.80316,-0.21615 -1.22155,-0.33483 c 0,0 -0.62145,-0.56656 -0.71931,-0.74868 -0.0979,-0.18212 -0.43455,-0.21766 -0.55402,-0.21766 -0.11946,0 -0.0816,0.13662 -0.21827,0.40506 -0.13666,0.26842 0.10323,0.32393 0.10323,0.32393 l 0.0285,0.47046 -0.34058,-0.34633 c 0,0 -0.3223,0.23509 -0.34936,0.49013 -0.0271,0.25504 0.0553,0.46149 0.10202,0.76381 0.0467,0.30232 0.52893,0.75026 0.70872,0.93607 0.1798,0.1858 0.18194,0.49074 0.18194,0.49074 l -0.20647,0.46077 v 0.91972 l 0.0273,1.16281 0.15803,1.38383 0.51012,0.99601 0.33937,1.19401 -0.69419,-0.046 -0.67056,-0.89308 -0.0127,-1.10106 -0.21495,-1.01115 c 0,0 -0.0274,-0.62043 0.0445,-0.95181 0.0719,-0.33139 -0.39629,-0.43412 -0.39629,-0.43412 l -0.42595,-0.0487 -0.066,-1.16887 -0.47046,-1.1056 c 0,0 -1.37458,-1.5302 -1.40198,-1.72592 -0.0274,-0.19573 -0.52966,-0.9174 -0.77653,-1.30178 -0.24687,-0.38439 -0.49536,-0.93236 -0.71355,-1.23275 -0.2182,-0.3004 -0.69055,-0.58277 -0.69055,-0.58277 0,0 -1.06918,-1.23043 -1.22216,-1.41107 -0.15298,-0.18063 -0.82314,-0.6309 -0.98602,-0.79378 -0.16289,-0.16289 -1.213146,-1.09993 -1.402593,-1.28937 -0.189452,-0.18945 -1.019323,-0.88278 -1.019323,-0.88278 z m 97.457168,41.72049 c -0.10097,0 -1.03868,0.002 -1.12619,0.0282 -0.0875,0.0265 -1.293,0.22888 -1.293,0.22888 l 0.0273,0.77167 c 0,0 0.30547,0.25115 0.5201,0.34512 0.21464,0.094 0.89944,0.56642 0.89944,0.56642 l 0.41929,-0.0723 c 0,0 0.47292,-0.25595 0.58852,-0.33423 0.1156,-0.0783 0.31788,-0.53644 0.31788,-0.53644 l 0.12685,-0.79924 c 0,0 -0.37917,-0.198 -0.48014,-0.198 z m 3.10004,13.68712 -0.47499,0.34755 -0.71992,0.5195 -0.65149,0.81345 -0.44775,0.68268 -0.0539,1.28301 c 0,0 0.29713,1.05839 0.32453,1.35295 0.0274,0.29456 0.49436,0.69447 0.49436,0.69447 l 0.63909,0.31213 1.14314,-0.026 0.40507,0.16045 -0.0436,0.50708 -0.20314,0.41718 c 0,0 0.78322,0.0276 0.90943,0.0276 0.1262,0 1.05383,0.165 1.05383,0.165 l 0.79318,1.38474 c 0,0 0.60804,0.71045 0.75745,0.78045 0.14943,0.07 1.19182,0.36904 1.40562,0.36904 0.21379,0 0.80589,-0.29819 0.80589,-0.29819 h 1.38594 l 1.19461,-0.24765 0.0602,-0.48922 0.14259,-0.39598 0.33029,-0.43957 -0.0269,-0.27702 -0.0388,-0.66299 c 0,0 -0.35509,-0.37161 -0.47923,-0.399 -0.12413,-0.0275 -1.54942,-0.68754 -1.54942,-0.68754 l -0.63999,-0.0496 -2.10343,0.10625 h -2.00927 l -0.79651,-0.49497 -0.0246,-0.56824 -0.52403,-0.39145 0.30152,-1.03234 c 0,0 0.3383,-0.58685 0.45925,-0.7078 0.12094,-0.12093 0.73234,-0.73293 0.73234,-0.73293 l -0.42445,-0.9718 -1.0723,-0.76652 z m 19.25543,3.23387 -0.48348,0.11443 -0.65149,0.42807 0.39234,0.13653 c 0,0 0.0475,0.1938 0.1986,0.56884 0.15113,0.37505 -0.0213,0.67997 0.30304,0.67997 0.3243,0 0.94697,-0.0291 0.94697,-0.0291 l 0.43444,-0.57369 -0.68783,-0.71507 z m -60.35105,45.44871 c 0,0 -0.4139,0.11605 -0.44109,0.14863 -0.0272,0.0326 -0.24582,0.26491 -0.24582,0.26491 l 0.0642,1.54699 -0.36479,1.5137 0.30122,1.27757 0.78864,1.40106 c 0,0 0.27982,0.29673 0.32181,0.63061 0.042,0.33389 0.31424,0.70629 0.31424,0.70629 l 0.79228,0.432 0.85705,0.37572 1.67929,0.89761 0.1883,0.25945 c 0,0 0.2988,0.15556 0.2988,0.24098 0,0.0854 0.0168,0.42513 0.059,0.68055 0.0422,0.25543 0.38356,0.66635 0.38356,0.66635 l 0.33515,0.33996 c 0,0 0.32907,-0.0262 0.32907,0.21252 0,0.23876 -0.0581,0.28814 -0.0581,0.44201 0,0.15387 0.0823,0.60003 0.0823,0.60003 l 0.27943,0.55672 0.54311,0.71175 0.54796,0.44503 0.026,0.49073 0.33604,0.13836 h 0.52071 l 0.51435,0.44684 0.14381,0.5092 0.26217,0.68723 -0.0233,0.89399 0.42354,1.03656 c 0,0 0.12035,0.52107 0.28487,0.55827 0.16451,0.0372 0.94031,0.13926 0.94031,0.13926 0,0 0.46529,0.0378 0.68479,0 0.2195,-0.0378 0.68292,-0.3696 0.70629,-0.48197 0.0233,-0.11235 0.10051,-0.41028 0.15864,-0.53706 0.0581,-0.12675 0.28264,-0.45386 0.43716,-0.39598 0.15451,0.0579 0.22039,-0.14379 0.22039,-0.14379 l -0.0966,-0.66058 -0.51253,-0.61941 -0.54342,-0.64121 -0.45834,-0.52555 -0.0942,-0.19859 -0.2316,-0.23462 c 0,0 0.054,-0.9454 0.0488,-0.99965 -0.006,-0.0542 0.29881,-0.5743 0.29881,-0.5743 l 0.17315,-0.55492 -0.51465,-0.45017 -0.28336,-0.45592 -0.56038,-0.75049 -0.62727,-0.45532 -0.12957,-0.63908 c 0,0 -0.03,-0.36005 -0.063,-0.37934 -0.033,-0.0193 -0.43997,-0.53876 -0.44654,-0.57975 -0.007,-0.041 -0.24371,-0.73352 -0.24371,-0.73352 l -0.0345,-0.78168 -0.47681,-0.58368 -0.15742,-1.03356 -0.60488,-0.74354 -0.48619,-1.12254 c 0,0 -0.31227,-0.81302 -0.33665,-0.88642 -0.0244,-0.0734 -0.11324,-0.53221 -0.24704,-0.53221 -0.13381,0 -1.36607,-0.43227 -1.61329,-0.42414 -0.24724,0.008 -1.97114,-0.002 -1.97114,-0.002 0,0 -0.87447,-0.92482 -0.87461,-0.89339 -1.4e-4,0.0315 -0.5967,-0.64332 -0.5967,-0.64332 l -0.71356,-0.4644 z m -4.82959,14.86509 0.0282,0.54222 0.0984,0.50314 c 0,0 0.28129,0.66617 0.32363,0.79893 0.0423,0.13278 0.34482,0.74262 0.34482,0.74262 l -0.0273,0.89943 -0.24128,0.53344 0.0817,0.80468 0.3978,0.34723 c 0,0 0.37328,-0.33392 0.37328,-0.48407 0,-0.15015 -0.21908,-0.90478 -0.16287,-1.07805 0.0562,-0.17329 0.16469,-0.47713 0.16469,-0.47713 l -0.0639,-0.90881 -0.21525,-0.63485 -0.50254,-0.90641 -0.2543,-0.44442 z" /></clipPath><linearGradient
       inkscape:collect="always"
       xlink:href="#linearGradient1126"
       id="linearGradient1131"
       gradientUnits="userSpaceOnUse"
       x1="92.056305"
       y1="151.01698"
       x2="216.8708"
       y2="151.01698" /></defs><g
     inkscape:groupmode="layer"
     id="layer2"
     inkscape:label="Content"
     transform="translate(-318.20462,-2.8753642)"><g
       id="g1131"
       clip-path="url(#clipPath1131)"
       transform="matrix(1.7060832,0,0,1.7060832,161.14888,-77.219252)"
       inkscape:label="Islands"><rect
         style="display:inline;fill:#83ffa6;fill-opacity:1;stroke-width:0.244063"
         id="rect4"
         width="130.35968"
         height="215.33447"
         x="87.165733"
         y="42.062435"
         ry="0" /><path
         style="display:inline;fill:url(#linearGradient1129);fill-opacity:1;stroke-width:0.264583"
         d="m 87.165733,99.598338 c 16.946087,0 21.733397,-44.764871 43.203677,-44.764871 20.5662,0 35.97136,48.551953 87.156,48.551953 v 70.00855 H 87.165735 Z"
         id="path1126"
         sodipodi:nodetypes="cccccc" /><path
         style="fill:url(#linearGradient21);stroke-width:0.264583"
         d="m 87.165736,153.45779 c 50.514844,0 41.473274,-70.275533 67.297814,-70.275533 24.37015,0 32.37667,72.058003 63.06186,72.058003 l 1e-5,102.15665 H 87.165737 Z"
         id="path18"
         sodipodi:nodetypes="cccccc" /><path
         style="fill:url(#linearGradient19);stroke-width:0.264583"
         d="m 87.165736,153.45779 c 19.193874,-15.843 17.276004,-30.93706 35.777494,-30.42039 21.94657,0.10095 36.20928,35.30712 94.58218,52.41496 v 81.94455 l -130.359678,-0.0364 z"
         id="path4"
         sodipodi:nodetypes="cccccc" /></g></g></svg>
